<?xml version="1.0" standalone="no"?>
<!DOCTYPE svg PUBLIC "-//W3C//DTD SVG 20010904//EN"
 "http://www.w3.org/TR/2001/REC-SVG-20010904/DTD/svg10.dtd">
<svg version="1.0" xmlns="http://www.w3.org/2000/svg"
 width="400.000000pt" height="400.000000pt" viewBox="0 0 400.000000 400.000000"
 preserveAspectRatio="xMidYMid meet">

<g transform="translate(0.000000,400.000000) scale(0.100000,-0.100000)"
fill="#d4af37" stroke="none">
<path d="M1162 2328 c-30 -8 -31 -10 -20 -31 19 -33 18 -587 -1 -610 -12 -15
-9 -17 39 -17 48 0 51 2 39 17 -11 12 -15 85 -19 333 l-5 316 -33 -8z"/>
<path d="M785 2160 c-50 -7 -62 -14 -80 -50 -19 -37 -10 -82 22 -112 13 -13
70 -45 126 -73 108 -53 140 -84 140 -135 0 -73 -63 -120 -162 -120 -70 0 -110
14 -161 56 -25 20 -29 22 -16 6 30 -35 78 -60 136 -73 140 -30 274 65 246 175
-13 50 -59 88 -172 142 -140 65 -172 106 -124 154 13 13 33 20 59 20 55 0 70
-8 86 -46 15 -37 26 -42 44 -20 35 42 -54 89 -144 76z"/>
<path d="M1350 2159 c-19 -5 -14 -7 23 -8 61 -1 102 -22 124 -64 15 -27 18
-59 18 -208 0 -134 -3 -180 -14 -192 -12 -15 -9 -17 37 -17 l51 0 -15 28 c-10
20 -14 68 -14 187 0 181 -9 214 -69 249 -40 23 -106 35 -141 25z"/>
<path d="M1885 2162 c-63 -10 -102 -43 -89 -76 10 -26 34 -18 46 14 12 36 35
50 78 50 42 0 87 -25 104 -58 16 -30 32 -142 21 -142 -4 0 -20 11 -36 24 -34
29 -127 50 -178 41 -115 -21 -181 -122 -152 -232 22 -80 124 -142 209 -127 65
12 65 20 0 16 -108 -6 -161 48 -162 163 -1 69 27 126 74 150 45 23 131 19 170
-7 66 -45 75 -67 78 -194 l4 -114 33 0 c34 0 34 0 19 28 -10 20 -14 68 -14
187 0 181 -9 214 -69 249 -35 20 -101 34 -136 28z"/>
<path d="M3023 2130 c-64 -37 -99 -87 -115 -163 -23 -107 20 -220 102 -272
109 -69 251 -47 325 49 73 96 74 233 2 327 -46 61 -106 88 -192 89 -60 0 -78
-5 -122 -30z m230 -13 c127 -96 108 -376 -30 -433 -80 -34 -183 -5 -227 64
-31 48 -50 140 -42 206 9 70 56 150 104 176 55 30 147 24 195 -13z"/>
<path d="M1295 2140 c-3 -6 1 -7 9 -4 18 7 21 14 7 14 -6 0 -13 -4 -16 -10z"/>
<path d="M2182 2123 c15 -16 68 -122 119 -238 50 -115 93 -212 96 -215 7 -8
20 19 70 143 26 64 50 117 54 117 3 0 30 -57 61 -127 31 -70 60 -129 65 -130
4 -1 46 90 93 204 47 114 95 222 107 240 l22 33 -29 0 c-27 0 -30 -3 -24 -24
4 -16 -17 -77 -67 -197 -39 -96 -75 -178 -79 -182 -11 -13 -172 361 -165 383
6 18 2 20 -46 20 l-52 0 21 -22 c20 -23 82 -150 82 -170 0 -23 -84 -218 -91
-210 -4 4 -42 84 -84 177 -51 115 -75 179 -72 198 3 27 3 27 -52 27 l-55 0 26
-27z"/>
<path d="M3648 2040 c-56 -37 -179 -180 -330 -383 -32 -43 -58 -72 -58 -64 0
47 -87 16 -177 -64 -74 -66 -157 -117 -231 -142 -64 -21 -82 -13 -66 29 7 21
20 30 57 41 34 10 65 30 104 68 58 56 64 78 20 83 -39 5 -82 -22 -159 -100
-82 -81 -144 -128 -170 -128 -30 0 -21 22 47 126 35 55 60 100 56 102 -5 2
-51 -38 -103 -89 -94 -93 -167 -153 -176 -145 -6 7 26 56 93 146 31 41 51 76
45 78 -14 5 -45 -23 -82 -73 -20 -27 -44 -46 -76 -58 -26 -9 -35 -15 -20 -12
14 3 34 8 45 12 15 6 16 5 5 -9 -21 -26 -32 -76 -19 -86 19 -15 47 1 119 67
l66 61 -19 -39 c-48 -99 7 -124 100 -45 l43 38 -6 -31 c-8 -36 13 -63 49 -63
14 0 67 22 119 49 68 34 92 43 86 30 -15 -27 -12 -66 5 -73 22 -8 63 10 111
50 l42 34 -11 -29 c-8 -22 -8 -33 2 -44 17 -21 51 -8 118 43 48 36 51 37 43
14 -6 -14 -10 -29 -10 -34 0 -17 32 -40 55 -40 27 0 188 79 225 111 19 16 14
15 -20 -5 -64 -38 -160 -83 -193 -90 -20 -5 -29 -2 -34 9 -11 31 13 60 61 73
33 9 62 27 102 66 59 57 65 79 21 84 -36 4 -78 -20 -145 -84 -72 -71 -149
-129 -186 -144 -26 -9 -28 -9 -23 9 2 10 42 71 88 136 73 102 86 115 107 110
38 -9 103 28 168 96 132 139 221 313 170 332 -8 3 -34 -7 -58 -23z m31 -82
c-49 -98 -156 -231 -223 -280 -34 -24 -96 -39 -96 -22 0 13 211 273 271 334
62 63 64 64 67 38 2 -14 -7 -46 -19 -70z m-699 -373 c0 -33 -107 -115 -152
-115 -16 0 67 86 107 111 36 23 45 24 45 4z m260 0 c0 -61 -185 -234 -216
-202 -10 10 25 64 78 122 74 81 138 118 138 80z m300 0 c0 -33 -107 -115 -152
-115 -16 0 67 86 107 111 36 23 45 24 45 4z"/>
<path d="M2363 1588 c-40 -20 -72 -78 -74 -138 -3 -62 -16 -100 -36 -100 -19
0 -16 10 9 37 12 13 17 23 10 23 -6 0 -20 -12 -31 -26 -16 -21 -18 -30 -10
-40 28 -33 69 -4 84 59 4 15 12 27 19 27 6 0 5 4 -3 9 -33 21 48 141 96 141
28 0 30 -25 6 -60 l-17 -25 22 19 c28 24 37 53 22 71 -14 17 -65 19 -97 3z"/>
<path d="M2368 1443 c7 -3 16 -2 19 1 4 3 -2 6 -13 5 -11 0 -14 -3 -6 -6z"/>
</g>
</svg>
